HIERARCHY
ROOT Hips
{
	OFFSET -0.001795 -0.223333 0.028219
	CHANNELS 6 Xposition Yposition Zposition Zrotation Yrotation Xrotation 
	JOINT LeftUpLeg
	{
		OFFSET 0.069520 -0.091406 -0.006815
		CHANNELS 3 Zrotation Yrotation Xrotation
		JOINT LeftLeg
		{
			OFFSET 0.034277 -0.375199 -0.004496
			CHANNELS 3 Zrotation Yrotation Xrotation
			JOINT LeftFoot
			{
				OFFSET -0.013596 -0.397961 -0.043693
				CHANNELS 3 Zrotation Yrotation Xrotation
				JOINT LeftToe
				{
					OFFSET 0.026358 -0.055791 0.119288
					CHANNELS 3 Zrotation Yrotation Xrotation
					End Site
					{
						OFFSET 0.000000 0.000000 0.000000
					}
				}
			}
		}
	}
	JOINT RightUpLeg
	{
		OFFSET -0.067670 -0.090522 -0.004320
		CHANNELS 3 Zrotation Yrotation Xrotation
		JOINT RightLeg
		{
			OFFSET -0.038290 -0.382569 -0.008850
			CHANNELS 3 Zrotation Yrotation Xrotation
			JOINT RightFoot
			{
				OFFSET 0.015774 -0.398415 -0.042312
				CHANNELS 3 Zrotation Yrotation Xrotation
				JOINT RightToe
				{
					OFFSET -0.025372 -0.048144 0.123348
					CHANNELS 3 Zrotation Yrotation Xrotation
					End Site
					{
						OFFSET 0.000000 0.000000 0.000000
					}
				}
			}
		}
	}
	JOINT Spine
	{
		OFFSET -0.002533 0.108963 -0.026696
		CHANNELS 3 Zrotation Yrotation Xrotation
		JOINT Spine1
		{
			OFFSET 0.005487 0.135180 0.001092
			CHANNELS 3 Zrotation Yrotation Xrotation
			JOINT Spine2
			{
				OFFSET 0.001457 0.052922 0.025425
				CHANNELS 3 Zrotation Yrotation Xrotation
				JOINT Neck
				{
					OFFSET -0.002778 0.213870 -0.042857
					CHANNELS 3 Zrotation Yrotation Xrotation
					JOINT Head
					{
						OFFSET 0.005152 0.064970 0.051349
						CHANNELS 3 Zrotation Yrotation Xrotation
						End Site
						{
							OFFSET 0.000000 0.000000 0.000000
						}
					}
				}
				JOINT LeftShoulder
				{
					OFFSET 0.078845 0.121749 -0.034090
					CHANNELS 3 Zrotation Yrotation Xrotation
					JOINT LeftArm
					{
						OFFSET 0.090977 0.030469 -0.008868
						CHANNELS 3 Zrotation Yrotation Xrotation
						JOINT LeftForeArm
						{
							OFFSET 0.259612 -0.012772 -0.027456
							CHANNELS 3 Zrotation Yrotation Xrotation
							JOINT LeftHand
							{
								OFFSET 0.249234 0.008986 -0.001171
								CHANNELS 3 Zrotation Yrotation Xrotation
								End Site
								{
									OFFSET 0.000000 0.000000 0.000000
								}
							}
						}
					}
				}
				JOINT RightShoulder
				{
					OFFSET -0.081759 0.118833 -0.038615
					CHANNELS 3 Zrotation Yrotation Xrotation
					JOINT RightArm
					{
						OFFSET -0.096012 0.032551 -0.009143
						CHANNELS 3 Zrotation Yrotation Xrotation
						JOINT RightForeArm
						{
							OFFSET -0.253742 -0.013329 -0.021401
							CHANNELS 3 Zrotation Yrotation Xrotation
							JOINT RightHand
							{
								OFFSET -0.255298 0.007772 -0.005559
								CHANNELS 3 Zrotation Yrotation Xrotation
								End Site
								{
									OFFSET 0.000000 0.000000 0.000000
								}
							}
						}
					}
				}
			}
		}
	}
}
MOTION
Frames: 13
Frame Time: 0.050000
-0.874076 0.917856 1.520863 -176.789833 37.887172 179.667858 -5.116791 -12.192761 21.067600 3.671794 -1.106931 -2.881695 23.377505 -1.169656 9.345461 0.000000 0.000000 0.000000 7.464681 -13.794906 -29.438415 -4.406177 -10.413531 18.313699 14.391652 6.203972 16.721551 0.000000 0.000000 0.000000 -7.092227 -6.902505 23.548716 4.304866 2.246936 -27.219692 2.971042 0.523925 28.106856 -4.317052 4.599999 -38.559467 0.000000 0.000000 0.000000 -21.034776 -15.520166 -53.543185 -31.454401 30.297003 -2.991029 -35.642150 -19.837641 6.379670 0.000000 0.000000 0.000000 20.891452 -4.904964 36.482294 40.682167 41.875209 7.279751 -3.916942 19.050723 -1.722611 0.000000 0.000000 0.000000 
-0.839142 0.911935 1.488364 -177.534996 37.078702 -179.861849 -6.082642 -12.957222 22.388854 4.170489 -0.868452 -1.510385 21.742893 -0.935941 11.116388 0.000000 0.000000 0.000000 8.227449 -13.439359 -29.420830 -7.461955 -10.897386 20.589434 19.181686 7.438681 14.932305 0.000000 0.000000 0.000000 -5.780076 -6.465369 22.958865 4.383687 2.222948 -28.708416 1.591986 -0.274093 28.997836 -3.964121 4.374148 -38.850434 0.000000 0.000000 0.000000 -20.735244 -15.379827 -53.605930 -32.001214 29.744161 -3.175076 -35.016728 -20.361367 6.295351 0.000000 0.000000 0.000000 24.242754 -6.087016 39.928620 34.675830 43.732239 3.839012 -5.241583 17.471172 -1.949959 0.000000 0.000000 0.000000 
-0.801108 0.908598 1.451506 -178.438775 36.694065 -179.664742 -5.278967 -12.352978 21.229361 1.649024 -1.316178 4.043213 19.229138 -0.318676 14.203224 0.000000 0.000000 0.000000 8.408707 -12.703666 -28.617076 -11.466083 -12.180665 24.083387 23.590819 8.927965 11.029427 0.000000 0.000000 0.000000 -4.181572 -5.112900 20.769987 3.719214 2.273217 -27.513714 1.016124 -1.798932 27.622880 -4.152683 4.153288 -37.916063 0.000000 0.000000 0.000000 -20.687939 -14.285387 -54.156495 -32.385009 31.080881 -3.783844 -34.594778 -18.825766 5.498296 0.000000 0.000000 0.000000 24.781497 -6.403390 39.909825 34.231554 42.540267 3.250579 -6.163695 15.652978 -1.877647 0.000000 0.000000 0.000000 
-0.762306 0.913151 1.413025 -177.085819 36.162110 -177.990137 -0.274284 -10.782517 16.021830 -4.513467 -4.509255 14.721152 14.844303 2.134762 22.271316 0.000000 0.000000 0.000000 7.833278 -10.883228 -26.041608 -10.994589 -14.851080 25.947000 24.862428 9.381813 7.621165 0.000000 0.000000 0.000000 -1.242777 -4.525104 19.275548 3.934986 2.199960 -28.948573 0.939080 -0.838949 28.449775 -5.357897 2.434461 -38.372388 0.000000 0.000000 0.000000 -21.339221 -14.951790 -56.656635 -30.444187 34.253149 -3.265946 -34.838297 -16.615127 5.065781 0.000000 0.000000 0.000000 24.994071 -7.643520 40.644299 32.032242 42.278186 2.772441 -5.462016 15.067027 -1.681917 0.000000 0.000000 0.000000 
-0.725687 0.921120 1.376423 -176.408012 35.229064 -178.310055 4.898488 -7.868865 7.152673 -18.836484 -13.476519 33.579039 13.463602 8.857267 34.943647 0.000000 0.000000 0.000000 6.470197 -7.689921 -20.624202 -8.958943 -16.607511 25.042377 24.359605 6.908963 4.389253 0.000000 0.000000 0.000000 -0.356248 -5.045085 19.808927 4.763436 2.271255 -28.283332 1.521532 0.570969 27.596174 -6.615362 0.814900 -37.234136 0.000000 0.000000 0.000000 -22.771748 -12.848050 -59.718239 -29.302857 36.541466 -3.015834 -35.548094 -13.979769 4.812354 0.000000 0.000000 0.000000 23.561971 -6.770157 41.016123 32.564507 41.788622 3.721301 -4.664787 13.992227 -1.495127 0.000000 0.000000 0.000000 
-0.692116 0.929675 1.340972 -176.494520 33.644195 -179.036736 7.796382 -5.557428 -3.366338 -43.271141 -20.022097 53.539702 21.523917 12.755329 54.212148 0.000000 0.000000 0.000000 5.174708 -4.872035 -14.349452 -5.256527 -16.540170 21.050846 23.236621 2.102247 1.181711 0.000000 0.000000 0.000000 -0.638133 -5.497380 20.440310 5.558489 2.309284 -27.673374 2.184930 3.132223 27.727190 -5.762743 -0.178780 -37.435787 0.000000 0.000000 0.000000 -21.739344 -13.546198 -61.909342 -27.531146 39.534343 -2.922449 -36.641953 -11.040756 4.164616 0.000000 0.000000 0.000000 23.457475 -7.945143 43.376874 29.778574 43.530451 3.303227 -5.374538 15.959724 -1.823181 0.000000 0.000000 0.000000 
-0.660704 0.936687 1.304664 -177.111541 33.102308 179.773818 8.328243 -5.174708 -10.689926 -57.626931 -20.546519 59.029200 31.019521 8.138222 70.648877 0.000000 0.000000 0.000000 5.042649 -2.716068 -7.937678 -3.205759 -14.151309 16.346481 22.540960 -2.922762 -1.516262 0.000000 0.000000 0.000000 -2.423683 -6.201922 21.889176 5.896099 2.337866 -28.073641 4.334539 6.041504 27.795544 -5.883892 -1.726498 -37.151181 0.000000 0.000000 0.000000 -21.414762 -13.351429 -64.725361 -24.896490 42.598701 -2.188084 -38.392716 -8.967484 4.103862 0.000000 0.000000 0.000000 22.093722 -7.878239 45.444510 26.450235 44.768095 3.185347 -6.479529 19.158370 -2.286078 0.000000 0.000000 0.000000 
-0.631321 0.943105 1.266940 -178.622375 33.757317 178.954627 8.274061 -6.107429 -17.591625 -49.561578 -21.538986 49.439177 35.303075 -3.077033 74.891439 0.000000 0.000000 0.000000 4.238025 -2.357034 -2.740196 -2.108958 -11.013470 12.109602 22.494726 -5.991160 -2.437339 0.000000 0.000000 0.000000 -3.514909 -5.724055 21.384422 5.164663 2.336414 -27.535287 5.679949 8.277886 27.404536 -7.428821 -4.244584 -36.689171 0.000000 0.000000 0.000000 -20.862033 -12.337352 -67.326358 -20.741150 45.182977 -0.960168 -38.771012 -5.234846 3.020482 0.000000 0.000000 0.000000 21.117021 -8.382713 46.640238 24.778614 46.668560 3.611835 -9.418467 22.525185 -3.093294 0.000000 0.000000 0.000000 
-0.604040 0.944872 1.228074 -179.716802 33.525122 178.589799 7.628770 -7.087654 -21.292713 -22.827978 -15.043072 25.604478 24.793563 -28.398860 81.413016 0.000000 0.000000 0.000000 3.582956 -2.989283 2.277784 -1.492090 -8.255633 7.883436 23.060215 -8.642206 -3.552459 0.000000 0.000000 0.000000 -4.452674 -5.667021 21.274500 3.893437 2.225093 -27.824632 6.905247 10.286027 27.591381 -7.147453 -5.555962 -36.582655 0.000000 0.000000 0.000000 -18.749882 -11.548378 -70.649619 -16.711871 48.695458 0.179907 -37.670657 -3.268776 1.797900 0.000000 0.000000 0.000000 20.038615 -8.999695 49.260085 19.819815 49.646119 2.849167 -13.099064 24.850615 -3.968366 0.000000 0.000000 0.000000 
-0.578693 0.942716 1.187437 179.943796 33.227979 178.996708 6.182499 -7.178168 -22.504359 -8.883461 -7.580692 9.523051 26.757791 -14.598890 51.909984 0.000000 0.000000 0.000000 3.037942 -3.874483 5.296527 -1.447107 -7.640095 6.820045 24.198749 -9.127152 -4.064977 0.000000 0.000000 0.000000 -5.083406 -5.648024 21.134034 3.809600 2.160866 -28.346802 7.272710 11.080368 28.017117 -7.071119 -6.139854 -36.862503 0.000000 0.000000 0.000000 -17.719048 -9.759241 -73.620967 -12.447463 51.081679 1.865279 -36.721282 -0.842961 0.727659 0.000000 0.000000 0.000000 16.780231 -8.514074 49.623471 20.928557 52.071765 5.789441 -17.648376 26.983331 -4.874326 0.000000 0.000000 0.000000 
-0.554081 0.938315 1.143473 -179.721142 34.192934 179.486785 5.585102 -6.221595 -20.742727 -4.935712 -5.964775 0.928141 21.072993 -8.373869 37.057001 0.000000 0.000000 0.000000 2.376566 -4.695274 7.363712 -1.896266 -8.892201 8.942554 26.756937 -6.692858 -4.252367 0.000000 0.000000 0.000000 -5.640178 -5.550232 21.139976 3.877461 2.209145 -28.277460 8.160481 12.709763 28.428520 -6.327827 -5.621423 -38.144417 0.000000 0.000000 0.000000 -17.275297 -9.975411 -74.271766 -12.337094 52.176869 2.038661 -33.421259 -1.091545 0.391394 0.000000 0.000000 0.000000 15.616869 -8.532527 49.713697 19.101008 53.674708 6.173547 -22.610181 28.030744 -5.835834 0.000000 0.000000 0.000000 
-0.529748 0.931840 1.095045 -179.593620 32.866249 178.683706 3.513842 -4.790069 -18.373075 -3.533223 -5.317769 1.364875 20.303681 -9.698542 28.514409 0.000000 0.000000 0.000000 1.445639 -6.155568 9.933285 -3.162782 -12.352738 13.455318 29.099296 -4.665387 -3.867969 0.000000 0.000000 0.000000 -6.720591 -5.669520 21.040984 4.921757 2.261693 -27.914935 8.206050 12.495791 29.929885 -5.348886 -5.380536 -37.923322 0.000000 0.000000 0.000000 -15.696555 -8.991326 -76.999340 -11.645738 54.484298 2.226697 -31.058326 -1.041121 -0.110632 0.000000 0.000000 0.000000 14.068601 -7.782878 52.794345 15.414847 56.996266 5.804492 -25.887249 25.701195 -6.228454 0.000000 0.000000 0.000000 
-0.505428 0.927373 1.041864 -179.602950 33.480911 178.136197 1.223166 -3.598486 -16.791528 -1.781447 -4.430482 6.624272 25.314190 -11.265917 22.560059 0.000000 0.000000 0.000000 -0.875802 -6.842620 9.126430 -9.464097 -20.269265 25.011772 33.722396 2.908644 4.175902 0.000000 0.000000 0.000000 -8.255573 -5.402550 20.333741 4.978125 2.281605 -26.418405 9.417663 13.243754 30.213710 -5.471405 -5.684177 -37.684991 0.000000 0.000000 0.000000 -15.514355 -10.839645 -76.557355 -10.980891 54.520255 2.910858 -30.141694 -1.326157 -0.034181 0.000000 0.000000 0.000000 14.258077 -7.938115 53.599537 14.934864 57.094730 5.300215 -27.835032 24.403943 -6.430234 0.000000 0.000000 0.000000 
